<svg width="200" height="200" xmlns="http://www.w3.org/2000/svg" version="1.1">
 <defs>
  <linearGradient gradientTransform="rotate(360 0.5 0.5)" id="gradient">
   <stop stop-color="#1dc779" offset="0%"/>
   <stop stop-color="#1dc779" offset="100%"/>
  </linearGradient>
 </defs>
 <g>
  <title>Layer 1</title>
  <rect rx="30" id="svg_1" fill="url('#gradient')" height="200" width="200"/>
  <g id="svg_2">
   <g id="svg_3" stroke-width="0.5" stroke="#fff" transform="matrix(6.296694850115296,0,0,6.296694850115296,15.777800445415537,144.77375637834388)" fill="#000">
    <path id="svg_4" d="m9.17,-4.81l3.41,0q-0.07,1.48 -0.8,2.62q-0.74,1.14 -2.06,1.76q-1.32,0.63 -3.02,0.63l0,0q-2.8,0 -4.41,-1.83q-1.62,-1.83 -1.62,-5.16l0,0l0,-0.7q0,-2.09 0.73,-3.66q0.73,-1.56 2.1,-2.42q1.36,-0.85 3.16,-0.85l0,0q2.59,0 4.16,1.36q1.57,1.36 1.79,3.75l0,0l-3.42,0q-0.04,-1.3 -0.65,-1.86q-0.62,-0.57 -1.88,-0.57l0,0q-1.28,0 -1.87,0.96q-0.6,0.96 -0.63,3.06l0,0l0,1q0,2.28 0.57,3.25q0.57,0.98 1.97,0.98l0,0q1.18,0 1.81,-0.56q0.62,-0.55 0.66,-1.76l0,0zm16.91,-9.41l0,14.22l-3.4,0l0,-5.94l-5.05,0l0,5.94l-3.43,0l0,-14.22l3.43,0l0,5.65l5.05,0l0,-5.65l3.4,0z"/>
   </g>
  </g>
 </g>
</svg>